<svg width="149" height="40" viewBox="0 0 149 40" fill="none" xmlns="http://www.w3.org/2000/svg">
<g clip-path="url(#clip0_4_108)">
<rect width="40" height="40" rx="20" fill="#006D5B"/>
<rect x="21.1758" y="27.0588" width="4.70588" height="4.70588" rx="2.35294" fill="#FFB000"/>
<path d="M11.7656 31.7647C11.7656 23.1495 18.7627 16.1674 27.3738 16.1674V20.1043C24.2839 20.112 21.3229 21.3431 19.1383 23.5283C16.9537 25.7134 15.7235 28.6749 15.7167 31.7647H11.7656Z" fill="white"/>
<path d="M11.7656 14.1965V20.0792C15.3322 15.325 20.9655 12.2005 27.3738 12.1922V8.23529C21.3734 8.23529 15.9177 10.5023 11.7656 14.1965Z" fill="white"/>
<path d="M46.82 29V10.28H58.26V13.816H50.356V17.872H56.7V21.408H50.356V29H46.82ZM60.8671 13.01V9.89H64.4031V13.01H60.8671ZM60.8671 29V14.96H64.4031V29H60.8671ZM77.8685 29V22.37C77.8685 22.0493 77.8511 21.642 77.8165 21.148C77.7818 20.6453 77.6735 20.1427 77.4915 19.64C77.3095 19.1373 77.0105 18.717 76.5945 18.379C76.1871 18.041 75.6065 17.872 74.8525 17.872C74.5491 17.872 74.2241 17.9197 73.8775 18.015C73.5308 18.1103 73.2058 18.2967 72.9025 18.574C72.5991 18.8427 72.3478 19.2413 72.1485 19.77C71.9578 20.2987 71.8625 21.0007 71.8625 21.876L69.8345 20.914C69.8345 19.8047 70.0598 18.7647 70.5105 17.794C70.9611 16.8233 71.6371 16.039 72.5385 15.441C73.4485 14.843 74.5925 14.544 75.9705 14.544C77.0711 14.544 77.9681 14.7303 78.6615 15.103C79.3548 15.4757 79.8921 15.948 80.2735 16.52C80.6635 17.092 80.9408 17.69 81.1055 18.314C81.2701 18.9293 81.3698 19.4927 81.4045 20.004C81.4391 20.5153 81.4565 20.888 81.4565 21.122V29H77.8685ZM68.2745 29V14.96H71.4205V19.614H71.8625V29H68.2745ZM87.8198 29L83.5298 14.934L86.9878 14.96L89.5358 23.332L92.1228 14.96H95.0608L97.6478 23.332L100.196 14.96H103.654L99.3638 29H96.6598L93.5918 19.848L90.5238 29H87.8198ZM109.118 29.39C108.113 29.39 107.259 29.1993 106.557 28.818C105.864 28.428 105.335 27.9123 104.971 27.271C104.616 26.621 104.438 25.906 104.438 25.126C104.438 24.476 104.538 23.8823 104.737 23.345C104.937 22.8077 105.257 22.3353 105.699 21.928C106.15 21.512 106.752 21.1653 107.506 20.888C108.026 20.6973 108.646 20.5283 109.365 20.381C110.085 20.2337 110.899 20.095 111.809 19.965C112.719 19.8263 113.72 19.6747 114.812 19.51L113.538 20.212C113.538 19.38 113.339 18.769 112.94 18.379C112.542 17.989 111.874 17.794 110.938 17.794C110.418 17.794 109.877 17.9197 109.313 18.171C108.75 18.4223 108.356 18.8687 108.13 19.51L104.932 18.496C105.288 17.3347 105.955 16.39 106.934 15.662C107.914 14.934 109.248 14.57 110.938 14.57C112.178 14.57 113.278 14.7607 114.24 15.142C115.202 15.5233 115.93 16.182 116.424 17.118C116.702 17.638 116.866 18.158 116.918 18.678C116.97 19.198 116.996 19.7787 116.996 20.42V29H113.902V26.114L114.344 26.712C113.66 27.6567 112.919 28.3413 112.121 28.766C111.333 29.182 110.332 29.39 109.118 29.39ZM109.872 26.608C110.522 26.608 111.068 26.4953 111.51 26.27C111.961 26.036 112.316 25.7717 112.576 25.477C112.845 25.1823 113.027 24.9353 113.122 24.736C113.304 24.3547 113.408 23.9127 113.434 23.41C113.469 22.8987 113.486 22.474 113.486 22.136L114.526 22.396C113.478 22.5693 112.628 22.7167 111.978 22.838C111.328 22.9507 110.804 23.0547 110.405 23.15C110.007 23.2453 109.656 23.3493 109.352 23.462C109.006 23.6007 108.724 23.7523 108.507 23.917C108.299 24.073 108.143 24.2463 108.039 24.437C107.944 24.6277 107.896 24.84 107.896 25.074C107.896 25.3947 107.974 25.672 108.13 25.906C108.295 26.1313 108.525 26.3047 108.819 26.426C109.114 26.5473 109.465 26.608 109.872 26.608ZM123.665 29L118.569 14.96H122.105L125.433 24.684L128.761 14.96H132.297L127.201 29H123.665ZM140.664 29.39C139.226 29.39 137.956 29.0823 136.855 28.467C135.763 27.843 134.905 26.9893 134.281 25.906C133.666 24.814 133.358 23.566 133.358 22.162C133.358 20.628 133.662 19.2933 134.268 18.158C134.875 17.0227 135.711 16.143 136.777 15.519C137.843 14.8863 139.07 14.57 140.456 14.57C141.93 14.57 143.182 14.9167 144.213 15.61C145.245 16.3033 146.007 17.2783 146.501 18.535C146.995 19.7917 147.169 21.2693 147.021 22.968H143.524V21.668C143.524 20.238 143.295 19.211 142.835 18.587C142.385 17.9543 141.644 17.638 140.612 17.638C139.408 17.638 138.519 18.0063 137.947 18.743C137.384 19.471 137.102 20.55 137.102 21.98C137.102 23.2887 137.384 24.3027 137.947 25.022C138.519 25.7327 139.356 26.088 140.456 26.088C141.15 26.088 141.743 25.9363 142.237 25.633C142.731 25.3297 143.108 24.892 143.368 24.32L146.904 25.334C146.376 26.6167 145.539 27.6133 144.395 28.324C143.26 29.0347 142.016 29.39 140.664 29.39ZM136.01 22.968V20.342H145.318V22.968H136.01Z" fill="#071F13"/>
</g>
<defs>
<clipPath id="clip0_4_108">
<rect width="149" height="40" fill="white"/>
</clipPath>
</defs>
</svg>
