<svg xmlns="http://www.w3.org/2000/svg" width="96" height="66" fill="none"><path d="M94.84 59.556c-5.707-5.177-35.018-26.16-42.323-27.937a24.683 24.683 0 00-5.194-.533c-3.968-5.77-8.922-10.334-14.62-13.468-6.067-3.367-12.662-5.56-19.604-6.52a67.272 67.272 0 00-6.477-.688l14.636-6.862c1.594-.749.937-3.493-.691-2.714A2751.783 2751.783 0 011.309 9.868C.266 10.35.23 11.906.751 12.562l13.206 16.656c1.008 1.258 2.747-1.398 1.756-2.64L5.352 13.507c8.572.192 16.741 2.235 24.164 6.045 5.49 2.685 10.336 6.693 14.316 11.84-2.198.357-4.412 1.126-6.567 2.28-1.849.964-3.587 2.402-5.086 4.207a21.48 21.48 0 00-3.57 6.218c-.884 2.764-1.228 5.617-1 8.29.229 2.672 1.022 5.077 2.305 6.99 1.423 2.123 3.239 3.77 5.342 4.846 2.103 1.076 4.453 1.56 6.911 1.421 4.18-.194 8.927-2.804 10.976-8.365 2.991-8.102-.725-16.839-3.62-22.452l-.249-.481c8.016.753 37.73 22.665 43.81 27.85 1.211.973 2.9-1.565 1.757-2.64zm-43.31-9.944c.301 2.718.179 5.987-1.441 8.63-2.92 4.867-8.51 4.806-11.931 3.671-4.518-1.486-8.105-5.79-8.208-12.076-.002-2.084.472-4.256 1.37-6.269.9-2.013 2.185-3.788 3.714-5.124 3.242-2.954 7.12-4.01 10.722-4.17a62.3 62.3 0 011.318 2.19c2.237 3.78 3.75 8.247 4.457 13.148z" fill="#083935"></path></svg>