<svg xmlns="http://www.w3.org/2000/svg" width="154" height="36" fill="none"><path fill-rule="evenodd" clip-rule="evenodd" d="M153.151 13.88c-9.23-1.884-16.292-9.73-17.672-13.022h-13.176l13.02 13.021-13.02 13.176h13.176c1.38-3.375 8.441-11.396 17.672-13.176zM3.411 34.494H1.704l-.774.93H0l3.41-4.494h.931v4.494h-.93v-.93zm17.826-3.564h.93l-1.705 4.494h-.93l1.705-4.494zm36.272 0h.93l-1.395 3.719h2.17l-.309.775H55.65l1.86-4.494zm18.137 0h1.084l-1.705 4.494H73.94l1.706-4.494zm17.205 0h1.085l.621 3.255 1.24-3.255h.93l-1.705 4.494h-1.086l-.62-3.1-1.24 3.1h-.93l1.705-4.494zm19.841 0h3.411l-.311.929h-2.324l-.465.93h2.326l-.31.776h-2.327l-.31 1.084h2.327l-.311.775h-3.41l1.704-4.494zm17.983 3.098c-.079.569.321.763.929.775.353-.013.844-.201.931-.619.068-.466-.495-.555-1.086-.775-.471-.124-.991-.382-.929-1.085.248-1.067 1.226-1.462 2.169-1.394.839-.068 1.533.34 1.396 1.394h-.931c.059-.522-.273-.696-.775-.62-.334-.076-.768.068-.775.464-.143.464.597.576.931.62.632.214 1.08.484.93 1.24-.177 1.12-1.221 1.528-2.016 1.551-1.297-.022-1.834-.537-1.704-1.55h.93zM13.642 24.576h-5.27L6.044 26.9H1.241l13.486-13.331h4.65l-2.17 13.33h-3.875l.31-2.323zm20.305-2.172c-2.008 3.266-5.36 4.726-9.3 4.651-4.545.076-5.79-1.845-5.115-3.875.153-.335.442-.852.62-1.085l4.96-8.525h4.806l-4.34 7.285c-.227.383-.588 1.047-.62 1.24-.182.417-.777 1.749 1.084 1.706 2.016.043 3.15-1.473 4.03-2.946l4.34-7.285h4.651l-5.116 8.834zm13.796-4.494c.09-.42.221-1.117-.309-1.396-.255-.276-.882-.285-1.396-.31-.822.025-1.927.23-2.17 1.085-.41 1.01 1.875 1.065 3.256 1.55 2.35.79 2.815 2.047 2.325 3.565-1.172 3.23-5.292 4.726-8.68 4.651-3.482.076-6.184-1.31-4.651-4.806h4.03c-.12 1.04.181 1.297.465 1.706.293.22.84.257 1.55.31.991-.052 2.275-.46 2.635-1.395.28-.894-1.247-1.023-3.1-1.704-1.752-.464-3.263-1.314-2.48-3.566 1.028-2.922 4.865-4.29 7.905-4.34 3.335.05 5.917 1.104 5.115 4.65h-4.495zm9.456-.93h-4.34l2.015-3.411h13.331l-2.015 3.41h-4.34l-5.736 9.766H51.31l5.89-9.766zm12.246 5.27h1.55c1.313-.034 1.415.314 1.396 1.085-.055.302-.317 1.827-.465 2.17-.06.63.149.979.155 1.24h4.185c-.122-.705-.116-1.56 0-2.635-.006-.56.429-2.61-.465-3.41 2.638.147 4.383-1.032 4.96-3.565.728-2.93-1.317-3.511-4.185-3.565h-6.665l-7.905 13.176h4.65l2.789-4.497zm16.431-8.681h4.65l-7.75 13.176H77.97l7.906-13.176z" fill="#000"></path><path fill-rule="evenodd" clip-rule="evenodd" d="M108.663 13.57h4.65l.155 8.06 4.496-8.06h4.494l-7.749 13.176h-4.652l-.31-7.286-4.339 7.286h-4.496l7.751-13.177zm-71.15 21.855h-.93l1.706-4.494h2.17c.76.027 1.232.346 1.085 1.24-.111.581-.641 1.318-1.55 1.395l.62 1.86h-.93l-.465-1.705h-1.086l-.62 1.704zm58.903-10.849h-5.425L88.666 26.9H83.86l13.487-13.33h4.651L99.826 26.9h-3.873l.463-2.324z" fill="#000"></path><path fill-rule="evenodd" clip-rule="evenodd" d="M14.106 21.783l.62-4.029-.31.465-3.41 3.564h3.1zM72.7 16.824h2.48c1.28-.059 1.427.57 1.24 1.086-.272.796-1.243 1.479-2.79 1.55h-2.48l1.55-2.636zm24.182 4.96l.62-4.03-.465.465-3.256 3.564h3.1zM3.41 33.72l.156-1.86-1.395 1.86h1.24zm35.033-.775h.93c.536.047 1.067-.155 1.085-.62.154-.522-.173-.59-.62-.621h-.93l-.465 1.24z" fill="#fff"></path></svg>