<svg xmlns="http://www.w3.org/2000/svg" width="142" height="36" fill="none"><g clip-path="url(#clip0_298_1632)"><path d="M15.94 1.34c3.07-.481 6.267-.18 9.182.906 3.33 1.224 6.27 3.462 8.367 6.321a18.211 18.211 0 012.796 15.87c-1.27 4.398-4.283 8.253-8.229 10.568-.36.221-.728.435-1.128.576-.84-.801-1.635-1.646-2.46-2.462-1.932-1.949-3.87-3.893-5.796-5.846-2.752 2.725-5.469 5.485-8.214 8.216-.93-.406-1.77-.994-2.589-1.59C4.35 31.275 1.815 27.348.941 23.04c-.826-4.034-.278-8.357 1.633-12.01 1.732 1.723 3.436 3.472 5.162 5.2 3.571 3.596 7.135 7.198 10.693 10.805.12.171.328.17.456.009 2.06-2.057 4.108-4.124 6.169-6.18 3.29-3.296 6.595-6.581 9.862-9.902-2.832-.013-5.665.07-8.497.085-.197.005-.397-.007-.59.035-.186.044-.301.211-.431.337-1.795 1.87-3.6 3.731-5.398 5.598-.412.405-.784.854-1.221 1.232-2.25-2.222-4.499-4.445-6.732-6.683-.231-.22-.452-.537-.81-.51-2.873-.042-5.745-.066-8.617-.118C3.655 8.91 5.105 7.105 6.813 5.605a18.152 18.152 0 019.126-4.265zm50.762 9.556c4.007.006 8.014.006 12.02-.001l.002 3.607c-2.748.005-5.496-.004-8.244.007.002.969.001 1.938.001 2.906 2.233.007 4.466 0 6.699.004a878.585 878.585 0 000 3.247c-2.233.02-4.467.001-6.7.01.004 1.144-.002 2.288.003 3.431 2.747.01 5.493-.002 8.24.007-.001 1.144.004 2.288-.003 3.432H66.701c-.007-5.55-.008-11.1.001-16.65zm16.32 0c1.891.02 3.783-.018 5.674-.016.776 0 1.554-.019 2.326.078 1.328.203 2.615.803 3.552 1.776.75.765 1.205 1.788 1.35 2.843.187 1.333.016 2.772-.756 3.903-.641.984-1.673 1.621-2.74 2.058 1.403 2.004 2.836 3.988 4.23 5.998-1.446.02-2.892.013-4.337.003-1.205-1.724-2.43-3.433-3.632-5.159-.132-.16-.247-.404-.49-.387-.468-.026-.938-.002-1.406 0 .003 1.851.001 3.702.003 5.552-1.259.005-2.518.003-3.777.002-.002-5.55-.006-11.102.002-16.652zm3.775 3.583c-.002 1.443-.002 2.886.001 4.33 1.147-.018 2.296.027 3.442-.017.947-.078 1.688-.92 1.85-1.823.117-.604-.032-1.266-.442-1.73a2.308 2.308 0 00-1.749-.764c-1.034-.003-2.068.004-3.102.004zm11.334-3.582c2.01.024 4.018-.017 6.028-.02 1.797-.028 3.592.032 5.39.022.89.001 1.782 0 2.672.002-.005 1.198-.01 2.397.001 3.595-1.662.019-3.326-.001-4.988.01.004 4.348.005 8.695 0 13.042-1.375-.001-2.749.003-4.123-.002-.001-4.345-.003-8.691-.002-13.036-1.66-.012-3.32-.003-4.98-.008 0-1.202-.003-2.403.002-3.605zm17.008.002c1.257 0 2.513.003 3.771-.002.008 5.55.003 11.1.002 16.651-1.259 0-2.517.003-3.775-.003-.003-5.549-.007-11.097.002-16.646zm-67.938.103c1.433-.008 2.867-.033 4.3-.026 1.295 3.666 2.555 7.344 3.877 11 1.38-3.594 2.662-7.226 4.004-10.834.025-.11.114-.176.229-.151 1.31.004 2.623.004 3.935.014-2.057 5.518-4.153 11.022-6.217 16.538-1.273.009-2.546 0-3.82.004-2.106-5.514-4.209-11.029-6.308-16.545zm74.76 0c1.437-.005 2.873-.039 4.31-.022 1.082 3.099 2.161 6.198 3.257 9.291.213.566.385 1.147.626 1.703 1.342-3.587 2.655-7.184 3.966-10.782.033-.081.061-.214.182-.193 1.333-.011 2.667 0 3.999.005-2.04 5.52-4.148 11.017-6.207 16.531-1.275.02-2.55.01-3.826.006-2.105-5.512-4.201-11.027-6.307-16.539zm14.419 13.88c.645.01 1.29-.007 1.935.011-.005.116-.009.233-.012.35-.263 0-.526 0-.787-.002-.005.827.006 1.655-.006 2.483l-.346-.012c.002-.824.012-1.648-.005-2.471-.264.003-.526.003-.787-.006.001-.118.004-.235.008-.352zm2.328 0c.161.001.323.002.486.001.243.771.446 1.554.675 2.328.256-.768.46-1.552.698-2.326l.449-.003c.005.944-.002 1.887.004 2.831-.111.004-.221.007-.328.012-.013-.729.019-1.458-.021-2.186-.247.724-.428 1.468-.672 2.193l-.302-.019c-.215-.708-.378-1.433-.64-2.125-.049.707-.012 1.417-.02 2.126l-.331.01c-.001-.948-.006-1.895.002-2.842z" fill="#222"></path></g><defs><clipPath id="clip0_298_1632"><path fill="#fff" transform="translate(0 .858)" d="M0 0h141.136v34.722H0z"></path></clipPath></defs></svg>