<svg xmlns="http://www.w3.org/2000/svg" width="108" height="23" fill="none"><g clip-path="url(#clip0_298_1638)"><path d="M10.814 22.636C4.868 22.636 0 17.768 0 11.736 0 5.802 4.868.935 10.814.935c6.024 0 10.887 4.867 10.887 10.8 0 6.033-4.867 10.9-10.887 10.9zm0-4.543c3.54 0 6.345-2.804 6.345-6.357 0-3.464-2.804-6.268-6.345-6.268a6.268 6.268 0 00-6.28 6.268c0 3.553 2.804 6.357 6.28 6.357zm66.68 4.543c-5.947 0-10.815-4.868-10.815-10.9 0-5.934 4.868-10.801 10.814-10.801 6.024 0 10.887 4.867 10.887 10.8 0 6.033-4.867 10.9-10.887 10.9zm0-4.543c3.54 0 6.344-2.804 6.344-6.357 0-3.464-2.804-6.268-6.345-6.268a6.268 6.268 0 00-6.28 6.268c0 3.553 2.804 6.357 6.28 6.357zm-54.551-16.5V22.14h4.534V5.391h5.038V22.14h4.534V5.391h1.738c1.811 0 3.215 1.404 3.215 3.13v13.618h4.543V8.683a7.221 7.221 0 00-7.261-7.26H27.562c-1.567-.005-3.142-.005-4.62.17zm66.679 0V22.14h4.534V5.391h5.124c1.725 0 3.215 1.404 3.215 3.13v13.618h4.534V8.683a7.221 7.221 0 00-7.26-7.26h-5.614c-1.477-.005-3.056-.005-4.533.17zm-41.18 0V22.14h4.533V5.391h5.364c1.824 0 3.228 1.404 3.228 3.13 0 1.81-1.404 3.215-3.228 3.215h-3.874l7.012 10.403h5.613l-5.116-7.509c2.47-.908 4.123-3.3 4.123-6.11 0-3.874-3.13-7.102-7.103-7.102h-6.023c-1.563 0-3.048 0-4.53.176z" fill="#166FC0"></path></g><defs><clipPath id="clip0_298_1638"><path fill="#fff" transform="translate(0 .935)" d="M0 0h107.029v21.701H0z"></path></clipPath></defs></svg>