<svg xmlns="http://www.w3.org/2000/svg" width="152" height="36" fill="none"><path d="M96.28 22.59a4.79 4.79 0 01-4.785-4.784 4.79 4.79 0 014.785-4.784 4.79 4.79 0 014.783 4.784c0 2.664-2.172 4.784-4.783 4.784zm0-12.413a7.627 7.627 0 00-7.63 7.63 7.627 7.627 0 007.63 7.628 7.627 7.627 0 007.629-7.629c0-4.19-3.414-7.63-7.63-7.63zm-9.336 12.801h.62v2.87h-.62c-3.284 0-5.974-2.689-5.974-5.973V6.763h2.87v3.828h3.698v2.87h-3.697v6.44c0 1.68 1.396 3.077 3.103 3.077zm34.963-.388a4.79 4.79 0 01-4.784-4.784 4.79 4.79 0 014.784-4.784 4.79 4.79 0 014.785 4.784c-.026 2.664-2.173 4.784-4.785 4.784zm0-12.413a7.627 7.627 0 00-7.629 7.63 7.627 7.627 0 007.629 7.628 7.627 7.627 0 007.629-7.629c0-4.19-3.414-7.63-7.629-7.63zm21.956 12.413a4.79 4.79 0 01-4.784-4.784 4.79 4.79 0 014.784-4.784 4.79 4.79 0 014.784 4.784c0 2.664-2.172 4.784-4.784 4.784m0-12.413a7.627 7.627 0 00-7.629 7.63 7.627 7.627 0 007.629 7.628 7.562 7.562 0 004.888-1.785v1.5h2.741v-7.345c0-4.189-3.414-7.628-7.629-7.628zm-32.067 0h1.37v2.87h-1.37a3.113 3.113 0 00-3.104 3.104v9.103h-2.87v-9.103c0-3.284 2.689-5.974 5.974-5.974zm19.654-3.802h2.87v18.827h-2.87V6.375zM61.885 16.538v9.078h-2.871v-9.078a3.112 3.112 0 00-3.103-3.103 3.113 3.113 0 00-3.104 3.103v9.077h-2.87v-9.077a3.113 3.113 0 00-3.103-3.103 3.113 3.113 0 00-3.104 3.103v9.077h-2.87v-9.077c0-3.284 2.69-5.974 5.948-5.974 1.836 0 3.44.802 4.551 2.095a5.938 5.938 0 014.552-2.095c3.284 0 5.974 2.69 5.974 5.974zm9.568 6.44a4.79 4.79 0 01-4.784-4.784 4.79 4.79 0 014.784-4.785 4.79 4.79 0 014.784 4.785c0 2.637-2.172 4.784-4.784 4.784zm0-12.413c-4.24 0-7.655 3.413-7.655 7.629a7.627 7.627 0 007.63 7.629 7.627 7.627 0 007.628-7.63c.026-4.189-3.388-7.628-7.603-7.628zM17.353.867C7.757.867 0 8.625 0 18.22c0 9.594 7.758 17.353 17.352 17.353 9.595 0 17.353-7.758 17.353-17.353C34.705 8.677 27.05.867 17.352.867z" fill="#000"></path><path d="M22.525 5.134l-5.146 17.068-.027.026-.051-.026-5.146-17.068-6.647 21.852H6.75s.828-3.801 2.198-6.077c.75-1.241 1.888-2.25 3.413-2.224 1.086.026 2.018.62 3.182 2.25.258.362.568.957.878 1.526.492.956.906 1.94.906 1.94s1.086-2.483 1.784-3.466c1.164-1.63 2.095-2.224 3.181-2.25 1.526-.026 2.69.983 3.414 2.224 1.37 2.276 2.198 6.077 2.198 6.077h1.241l-6.62-21.852z" fill="#fff"></path></svg>