<svg xmlns="http://www.w3.org/2000/svg" width="205" height="101" fill="none"><path d="M148.893 99.15a1.474 1.474 0 01-.913 1.366 1.477 1.477 0 11.913-1.365zm18.984 0a1.48 1.48 0 01-.912 1.366 1.477 1.477 0 11.912-1.365zm18.237 0a1.482 1.482 0 01-1.772 1.462 1.485 1.485 0 111.772-1.461zm18.212 0a1.473 1.473 0 01-.912 1.366 1.477 1.477 0 11.912-1.365zm-55.433-20.368a1.474 1.474 0 01-.913 1.365 1.478 1.478 0 11.913-1.365zm18.984 0a1.48 1.48 0 01-.912 1.365 1.478 1.478 0 11.912-1.365zm18.237 0a1.482 1.482 0 01-1.772 1.462 1.483 1.483 0 111.772-1.462zm18.212 0a1.473 1.473 0 01-.912 1.365 1.478 1.478 0 11.912-1.365zm-55.433-19.296a1.474 1.474 0 01-.913 1.365 1.479 1.479 0 11.913-1.365zm18.984 0a1.481 1.481 0 01-.912 1.365 1.479 1.479 0 11.912-1.365zm18.237 0a1.482 1.482 0 01-1.772 1.461 1.483 1.483 0 111.772-1.462zm18.212 0a1.473 1.473 0 01-.912 1.365 1.479 1.479 0 11.912-1.365zm-55.433-19.297a1.474 1.474 0 01-.913 1.365 1.479 1.479 0 11.913-1.365zm18.984 0a1.481 1.481 0 01-.912 1.365 1.479 1.479 0 11.912-1.365zm18.237 0a1.482 1.482 0 01-1.772 1.461 1.483 1.483 0 111.772-1.461zm18.212 0a1.473 1.473 0 01-.912 1.365 1.479 1.479 0 11.912-1.365zm-55.433-19.297a1.474 1.474 0 01-.913 1.366 1.477 1.477 0 11.913-1.366zm18.984 0a1.48 1.48 0 01-.912 1.366 1.477 1.477 0 11.912-1.366zm18.237 0a1.483 1.483 0 01-1.772 1.462 1.483 1.483 0 111.772-1.462zm18.212 0a1.473 1.473 0 01-.912 1.366 1.477 1.477 0 11.912-1.366zM148.893 2.118a1.474 1.474 0 01-.913 1.366 1.478 1.478 0 11.913-1.366zm18.984 0a1.48 1.48 0 01-.912 1.366 1.478 1.478 0 11.912-1.366zm18.237 0a1.482 1.482 0 01-1.772 1.462 1.483 1.483 0 111.772-1.461zm18.212 0a1.473 1.473 0 01-.912 1.366 1.478 1.478 0 11.912-1.366zM75.994 99.15a1.478 1.478 0 11-2.955 0 1.478 1.478 0 012.955 0zm18.985 0a1.478 1.478 0 11-2.956 0 1.478 1.478 0 012.956 0zm18.236 0a1.481 1.481 0 01-1.771 1.462 1.482 1.482 0 01.294-2.94 1.485 1.485 0 011.477 1.479zm18.213 0a1.48 1.48 0 01-.912 1.366 1.477 1.477 0 11.912-1.365zM75.994 78.782a1.477 1.477 0 11-2.954 0 1.477 1.477 0 012.954 0zm18.985 0a1.478 1.478 0 11-2.955 0 1.478 1.478 0 012.955 0zm18.236 0a1.481 1.481 0 01-1.771 1.462 1.484 1.484 0 111.771-1.462zm18.213 0a1.48 1.48 0 01-.912 1.365 1.478 1.478 0 11.912-1.365zM75.994 59.486a1.478 1.478 0 11-2.956 0 1.478 1.478 0 012.956 0zm18.985 0a1.478 1.478 0 11-2.956 0 1.478 1.478 0 012.956 0zm18.236 0a1.481 1.481 0 01-1.771 1.461 1.484 1.484 0 111.771-1.462zm18.213 0a1.481 1.481 0 01-.912 1.365 1.479 1.479 0 11.912-1.365zM75.994 40.189a1.478 1.478 0 11-2.955 0 1.478 1.478 0 012.955 0zm18.985 0a1.478 1.478 0 11-2.956 0 1.478 1.478 0 012.956 0zm18.236 0a1.481 1.481 0 01-1.771 1.461 1.484 1.484 0 111.771-1.461zm18.213 0a1.481 1.481 0 01-.912 1.365 1.479 1.479 0 11.912-1.365zM75.994 20.892a1.477 1.477 0 11-2.954 0 1.477 1.477 0 012.954 0zm18.985 0a1.478 1.478 0 11-2.955 0 1.478 1.478 0 012.955 0zm18.236 0a1.482 1.482 0 01-1.771 1.462 1.484 1.484 0 111.771-1.462zm18.213 0a1.48 1.48 0 01-.912 1.366 1.477 1.477 0 11.912-1.366zM75.994 2.118a1.478 1.478 0 11-2.955 0 1.478 1.478 0 012.955 0zm18.985 0a1.478 1.478 0 11-2.956 0 1.478 1.478 0 012.956 0zm18.236 0a1.481 1.481 0 01-1.771 1.462 1.484 1.484 0 111.771-1.462zm18.213 0a1.48 1.48 0 01-.912 1.366 1.478 1.478 0 11.912-1.366zM3.096 99.15a1.478 1.478 0 11-2.955 0 1.478 1.478 0 012.955 0zm18.984 0a1.478 1.478 0 11-2.955 0 1.478 1.478 0 012.956 0zm18.237 0a1.484 1.484 0 11-2.968.012 1.484 1.484 0 012.968-.011zm18.213 0a1.478 1.478 0 11-2.955 0 1.478 1.478 0 012.955 0zM3.096 78.782a1.478 1.478 0 11-2.955 0 1.478 1.478 0 012.955 0zm18.984 0a1.478 1.478 0 11-2.954 0 1.478 1.478 0 012.955 0zm18.237 0a1.484 1.484 0 11-2.968.012 1.484 1.484 0 012.968-.012zm18.213 0a1.477 1.477 0 11-2.955 0 1.477 1.477 0 012.955 0zM3.096 59.486a1.478 1.478 0 11-2.956 0 1.478 1.478 0 012.956 0zm18.984 0a1.478 1.478 0 11-2.955 0 1.478 1.478 0 012.956 0zm18.237 0a1.484 1.484 0 11-2.968.011 1.484 1.484 0 012.968-.011zm18.213 0a1.478 1.478 0 11-2.956 0 1.478 1.478 0 012.956 0zM3.096 40.189a1.478 1.478 0 11-2.955 0 1.478 1.478 0 012.955 0zm18.984 0a1.478 1.478 0 11-2.955 0 1.478 1.478 0 012.956 0zm18.237 0a1.484 1.484 0 11-2.968.011 1.484 1.484 0 012.968-.011zm18.213 0a1.478 1.478 0 11-2.956 0 1.478 1.478 0 012.956 0zM3.096 20.892a1.478 1.478 0 11-2.955 0 1.478 1.478 0 012.955 0zm18.984 0a1.478 1.478 0 11-2.954 0 1.478 1.478 0 012.955 0zm18.237 0a1.485 1.485 0 11-2.969.012 1.485 1.485 0 012.97-.012zm18.213 0a1.477 1.477 0 11-2.955 0 1.477 1.477 0 012.955 0zM3.096 2.118a1.478 1.478 0 11-2.955 0 1.478 1.478 0 012.955 0zm18.984 0a1.478 1.478 0 11-2.955 0 1.478 1.478 0 012.956 0zm18.237 0a1.484 1.484 0 11-2.968.012 1.484 1.484 0 012.968-.012zm18.213 0a1.478 1.478 0 11-2.955 0 1.478 1.478 0 012.955 0z" fill="#989898"></path></svg>